<mxfile host="Electron" modified="2025-03-08T01:15:52.384Z" agent="Mozilla/5.0 (Windows NT 10.0; Win64; x64) AppleWebKit/537.36 (KHTML, like Gecko) draw.io/21.6.8 Chrome/114.0.5735.289 Electron/25.5.0 Safari/537.36" etag="PM33em-wQ8MfSgRzfFZy" version="21.6.8" type="device">
  <diagram id="C5RBs43oDa-KdzZeNtuy" name="Page-1">
    <mxGraphModel dx="1658" dy="820" grid="1" gridSize="10" guides="1" tooltips="1" connect="1" arrows="1" fold="1" page="1" pageScale="1" pageWidth="827" pageHeight="1169" math="0" shadow="0">
      <root>
        <mxCell id="WIyWlLk6GJQsqaUBKTNV-0" />
        <mxCell id="WIyWlLk6GJQsqaUBKTNV-1" parent="WIyWlLk6GJQsqaUBKTNV-0" />
        <mxCell id="Y_d6Asy80G2Rw4AG2tDW-0" value="Cloud Infrastructure" style="whiteSpace=wrap;strokeWidth=2;verticalAlign=top;" vertex="1" parent="WIyWlLk6GJQsqaUBKTNV-1">
          <mxGeometry x="33" y="329" width="1291" height="187" as="geometry" />
        </mxCell>
        <mxCell id="Y_d6Asy80G2Rw4AG2tDW-1" value="AWS RDS - MySQL" style="whiteSpace=wrap;strokeWidth=2;" vertex="1" parent="WIyWlLk6GJQsqaUBKTNV-1">
          <mxGeometry x="405" y="354" width="139" height="34" as="geometry" />
        </mxCell>
        <mxCell id="Y_d6Asy80G2Rw4AG2tDW-2" value="Elasticsearch" style="whiteSpace=wrap;strokeWidth=2;" vertex="1" parent="WIyWlLk6GJQsqaUBKTNV-1">
          <mxGeometry x="111" y="354" width="109" height="34" as="geometry" />
        </mxCell>
        <mxCell id="Y_d6Asy80G2Rw4AG2tDW-3" value="Apache Kafka" style="whiteSpace=wrap;strokeWidth=2;" vertex="1" parent="WIyWlLk6GJQsqaUBKTNV-1">
          <mxGeometry x="1077" y="354" width="114" height="34" as="geometry" />
        </mxCell>
        <mxCell id="Y_d6Asy80G2Rw4AG2tDW-4" value="ElastiCache - Redis" style="whiteSpace=wrap;strokeWidth=2;" vertex="1" parent="WIyWlLk6GJQsqaUBKTNV-1">
          <mxGeometry x="399" y="457" width="151" height="34" as="geometry" />
        </mxCell>
        <mxCell id="Y_d6Asy80G2Rw4AG2tDW-5" value="AWS S3" style="whiteSpace=wrap;strokeWidth=2;" vertex="1" parent="WIyWlLk6GJQsqaUBKTNV-1">
          <mxGeometry x="825" y="354" width="66" height="34" as="geometry" />
        </mxCell>
        <mxCell id="Y_d6Asy80G2Rw4AG2tDW-6" value="User Requests" style="whiteSpace=wrap;strokeWidth=2;" vertex="1" parent="WIyWlLk6GJQsqaUBKTNV-1">
          <mxGeometry x="512" y="20" width="115" height="34" as="geometry" />
        </mxCell>
        <mxCell id="Y_d6Asy80G2Rw4AG2tDW-7" value="AWS API Gateway &amp; ALB" style="whiteSpace=wrap;strokeWidth=2;" vertex="1" parent="WIyWlLk6GJQsqaUBKTNV-1">
          <mxGeometry x="477" y="123" width="186" height="34" as="geometry" />
        </mxCell>
        <mxCell id="Y_d6Asy80G2Rw4AG2tDW-8" value="Auth Service" style="whiteSpace=wrap;strokeWidth=2;" vertex="1" parent="WIyWlLk6GJQsqaUBKTNV-1">
          <mxGeometry x="20" y="226" width="106" height="34" as="geometry" />
        </mxCell>
        <mxCell id="Y_d6Asy80G2Rw4AG2tDW-9" value="Product Service" style="whiteSpace=wrap;strokeWidth=2;" vertex="1" parent="WIyWlLk6GJQsqaUBKTNV-1">
          <mxGeometry x="318" y="226" width="127" height="34" as="geometry" />
        </mxCell>
        <mxCell id="Y_d6Asy80G2Rw4AG2tDW-10" value="Order Service" style="whiteSpace=wrap;strokeWidth=2;" vertex="1" parent="WIyWlLk6GJQsqaUBKTNV-1">
          <mxGeometry x="676" y="226" width="113" height="34" as="geometry" />
        </mxCell>
        <mxCell id="Y_d6Asy80G2Rw4AG2tDW-11" value="Payment Service" style="whiteSpace=wrap;strokeWidth=2;" vertex="1" parent="WIyWlLk6GJQsqaUBKTNV-1">
          <mxGeometry x="979" y="226" width="133" height="34" as="geometry" />
        </mxCell>
        <mxCell id="Y_d6Asy80G2Rw4AG2tDW-12" value="API Call" style="curved=1;startArrow=none;endArrow=block;exitX=0.5043308423913043;exitY=1;entryX=0.499989499327957;entryY=0;rounded=0;" edge="1" parent="WIyWlLk6GJQsqaUBKTNV-1" source="Y_d6Asy80G2Rw4AG2tDW-6" target="Y_d6Asy80G2Rw4AG2tDW-7">
          <mxGeometry relative="1" as="geometry">
            <Array as="points" />
          </mxGeometry>
        </mxCell>
        <mxCell id="Y_d6Asy80G2Rw4AG2tDW-13" value="Routes Requests" style="curved=1;startArrow=none;endArrow=block;exitX=-0.0002205141129032258;exitY=0.7835427032587277;entryX=0.49977889150943394;entryY=0;rounded=0;" edge="1" parent="WIyWlLk6GJQsqaUBKTNV-1" source="Y_d6Asy80G2Rw4AG2tDW-7" target="Y_d6Asy80G2Rw4AG2tDW-8">
          <mxGeometry relative="1" as="geometry">
            <Array as="points">
              <mxPoint x="73" y="192" />
            </Array>
          </mxGeometry>
        </mxCell>
        <mxCell id="Y_d6Asy80G2Rw4AG2tDW-14" value="Routes Requests" style="curved=1;startArrow=none;endArrow=block;exitX=0.16514019518608414;exitY=1;entryX=0.4985851377952756;entryY=0;rounded=0;" edge="1" parent="WIyWlLk6GJQsqaUBKTNV-1" source="Y_d6Asy80G2Rw4AG2tDW-7" target="Y_d6Asy80G2Rw4AG2tDW-9">
          <mxGeometry relative="1" as="geometry">
            <Array as="points">
              <mxPoint x="381" y="192" />
            </Array>
          </mxGeometry>
        </mxCell>
        <mxCell id="Y_d6Asy80G2Rw4AG2tDW-15" value="Routes Requests" style="curved=1;startArrow=none;endArrow=block;exitX=0.7879821541588368;exitY=1;entryX=0.4979950221238938;entryY=0;rounded=0;" edge="1" parent="WIyWlLk6GJQsqaUBKTNV-1" source="Y_d6Asy80G2Rw4AG2tDW-7" target="Y_d6Asy80G2Rw4AG2tDW-10">
          <mxGeometry relative="1" as="geometry">
            <Array as="points">
              <mxPoint x="732" y="192" />
            </Array>
          </mxGeometry>
        </mxCell>
        <mxCell id="Y_d6Asy80G2Rw4AG2tDW-16" value="Routes Requests" style="curved=1;startArrow=none;endArrow=block;exitX=1.0001995127688172;exitY=0.7962653180362096;entryX=0.5013216635338346;entryY=0;rounded=0;" edge="1" parent="WIyWlLk6GJQsqaUBKTNV-1" source="Y_d6Asy80G2Rw4AG2tDW-7" target="Y_d6Asy80G2Rw4AG2tDW-11">
          <mxGeometry relative="1" as="geometry">
            <Array as="points">
              <mxPoint x="1046" y="192" />
            </Array>
          </mxGeometry>
        </mxCell>
        <mxCell id="Y_d6Asy80G2Rw4AG2tDW-17" value="Auth Data" style="curved=1;startArrow=none;endArrow=block;exitX=0.49977889150943394;exitY=1;entryX=-0.0022482014388489208;entryY=0.28567748052269254;rounded=0;" edge="1" parent="WIyWlLk6GJQsqaUBKTNV-1" source="Y_d6Asy80G2Rw4AG2tDW-8" target="Y_d6Asy80G2Rw4AG2tDW-1">
          <mxGeometry relative="1" as="geometry">
            <Array as="points">
              <mxPoint x="73" y="329" />
            </Array>
          </mxGeometry>
        </mxCell>
        <mxCell id="Y_d6Asy80G2Rw4AG2tDW-18" value="Product Data" style="curved=1;startArrow=none;endArrow=block;exitX=0.20365325902071701;exitY=1;entryX=-0.0022482014388489208;entryY=0.08339366130605566;rounded=0;" edge="1" parent="WIyWlLk6GJQsqaUBKTNV-1" source="Y_d6Asy80G2Rw4AG2tDW-9" target="Y_d6Asy80G2Rw4AG2tDW-1">
          <mxGeometry relative="1" as="geometry">
            <Array as="points">
              <mxPoint x="268" y="295" />
              <mxPoint x="268" y="329" />
            </Array>
          </mxGeometry>
        </mxCell>
        <mxCell id="Y_d6Asy80G2Rw4AG2tDW-19" value="Order Data" style="curved=1;startArrow=none;endArrow=block;exitX=0.34760389369791256;exitY=1;entryX=0.9996627697841727;entryY=0.08339366130605566;rounded=0;" edge="1" parent="WIyWlLk6GJQsqaUBKTNV-1" source="Y_d6Asy80G2Rw4AG2tDW-10" target="Y_d6Asy80G2Rw4AG2tDW-1">
          <mxGeometry relative="1" as="geometry">
            <Array as="points">
              <mxPoint x="681" y="295" />
              <mxPoint x="681" y="329" />
            </Array>
          </mxGeometry>
        </mxCell>
        <mxCell id="Y_d6Asy80G2Rw4AG2tDW-20" value="Payment Data" style="curved=1;startArrow=none;endArrow=block;exitX=0.21257881505949316;exitY=1;entryX=0.9996627697841727;entryY=0.3109589435403296;rounded=0;" edge="1" parent="WIyWlLk6GJQsqaUBKTNV-1" source="Y_d6Asy80G2Rw4AG2tDW-11" target="Y_d6Asy80G2Rw4AG2tDW-1">
          <mxGeometry relative="1" as="geometry">
            <Array as="points">
              <mxPoint x="929" y="295" />
              <mxPoint x="929" y="329" />
            </Array>
          </mxGeometry>
        </mxCell>
        <mxCell id="Y_d6Asy80G2Rw4AG2tDW-21" value="Full-text Search" style="curved=1;startArrow=none;endArrow=block;exitX=0.5258918588984021;exitY=1;entryX=0.9987815366972477;entryY=0.20323008348684285;rounded=0;" edge="1" parent="WIyWlLk6GJQsqaUBKTNV-1" source="Y_d6Asy80G2Rw4AG2tDW-9" target="Y_d6Asy80G2Rw4AG2tDW-2">
          <mxGeometry relative="1" as="geometry">
            <Array as="points">
              <mxPoint x="392" y="295" />
              <mxPoint x="392" y="329" />
            </Array>
          </mxGeometry>
        </mxCell>
        <mxCell id="Y_d6Asy80G2Rw4AG2tDW-22" value="Event Processing" style="curved=1;startArrow=none;endArrow=block;exitX=0.6955135347753243;exitY=1;entryX=0.0013877467105263158;entryY=0.29001531153400106;rounded=0;" edge="1" parent="WIyWlLk6GJQsqaUBKTNV-1" source="Y_d6Asy80G2Rw4AG2tDW-10" target="Y_d6Asy80G2Rw4AG2tDW-3">
          <mxGeometry relative="1" as="geometry">
            <Array as="points">
              <mxPoint x="800" y="295" />
              <mxPoint x="800" y="329" />
            </Array>
          </mxGeometry>
        </mxCell>
        <mxCell id="Y_d6Asy80G2Rw4AG2tDW-23" value="Transaction Logs" style="curved=1;startArrow=none;endArrow=block;exitX=0.5345126697204176;exitY=1;entryX=0.23358689692982457;entryY=0;rounded=0;" edge="1" parent="WIyWlLk6GJQsqaUBKTNV-1" source="Y_d6Asy80G2Rw4AG2tDW-11" target="Y_d6Asy80G2Rw4AG2tDW-3">
          <mxGeometry relative="1" as="geometry">
            <Array as="points">
              <mxPoint x="1059" y="295" />
              <mxPoint x="1059" y="329" />
            </Array>
          </mxGeometry>
        </mxCell>
        <mxCell id="Y_d6Asy80G2Rw4AG2tDW-24" value="Session &amp; Cart Caching" style="curved=1;startArrow=none;endArrow=block;exitX=0.49870728417266186;exitY=1;entryX=0.49881001655629137;entryY=0;rounded=0;" edge="1" parent="WIyWlLk6GJQsqaUBKTNV-1" source="Y_d6Asy80G2Rw4AG2tDW-1" target="Y_d6Asy80G2Rw4AG2tDW-4">
          <mxGeometry relative="1" as="geometry">
            <Array as="points" />
          </mxGeometry>
        </mxCell>
        <mxCell id="Y_d6Asy80G2Rw4AG2tDW-25" value="Store Payment Receipts" style="curved=1;startArrow=none;endArrow=block;exitX=0.9429263769253233;exitY=1;entryX=1.0099727746212122;entryY=0.3878903840586093;rounded=0;" edge="1" parent="WIyWlLk6GJQsqaUBKTNV-1" source="Y_d6Asy80G2Rw4AG2tDW-11" target="Y_d6Asy80G2Rw4AG2tDW-5">
          <mxGeometry relative="1" as="geometry">
            <Array as="points">
              <mxPoint x="1224" y="295" />
              <mxPoint x="1224" y="329" />
            </Array>
          </mxGeometry>
        </mxCell>
        <mxCell id="Y_d6Asy80G2Rw4AG2tDW-26" value="Store Product Images" style="curved=1;startArrow=none;endArrow=block;exitX=0.9244511959139208;exitY=1;entryX=0.005948153409090909;entryY=0.3693871265783808;rounded=0;" edge="1" parent="WIyWlLk6GJQsqaUBKTNV-1" source="Y_d6Asy80G2Rw4AG2tDW-9" target="Y_d6Asy80G2Rw4AG2tDW-5">
          <mxGeometry relative="1" as="geometry">
            <Array as="points">
              <mxPoint x="545" y="295" />
              <mxPoint x="545" y="329" />
            </Array>
          </mxGeometry>
        </mxCell>
      </root>
    </mxGraphModel>
  </diagram>
</mxfile>
